<mxfile host="app.diagrams.net" modified="2022-10-13T00:54:13.825Z" agent="5.0 (Windows NT 10.0; Win64; x64) AppleWebKit/537.36 (KHTML, like Gecko) Chrome/106.0.0.0 Safari/537.36" etag="HZa9-c-WimHzb05fFCip" version="20.4.0" type="github">
  <diagram id="kgpKYQtTHZ0yAKxKKP6v" name="Page-1">
    <mxGraphModel dx="1078" dy="736" grid="1" gridSize="10" guides="1" tooltips="1" connect="1" arrows="1" fold="1" page="1" pageScale="1" pageWidth="850" pageHeight="1100" math="0" shadow="0">
      <root>
        <mxCell id="0" />
        <mxCell id="1" parent="0" />
        <mxCell id="3nuBFxr9cyL0pnOWT2aG-1" value="In/Out 보드" style="shape=umlLifeline;perimeter=lifelinePerimeter;container=1;collapsible=0;recursiveResize=0;rounded=0;shadow=0;strokeWidth=1;" parent="1" vertex="1">
          <mxGeometry x="240" y="80" width="100" height="300" as="geometry" />
        </mxCell>
        <mxCell id="3nuBFxr9cyL0pnOWT2aG-2" value="" style="points=[];perimeter=orthogonalPerimeter;rounded=0;shadow=0;strokeWidth=1;" parent="3nuBFxr9cyL0pnOWT2aG-1" vertex="1">
          <mxGeometry x="45" y="70" width="10" height="190" as="geometry" />
        </mxCell>
        <mxCell id="3nuBFxr9cyL0pnOWT2aG-3" value="출력" style="verticalAlign=bottom;startArrow=block;endArrow=none;startSize=8;shadow=0;strokeWidth=1;startFill=1;endFill=0;" parent="3nuBFxr9cyL0pnOWT2aG-1" edge="1">
          <mxGeometry relative="1" as="geometry">
            <mxPoint x="-15" y="90" as="sourcePoint" />
            <mxPoint x="45" y="90" as="targetPoint" />
          </mxGeometry>
        </mxCell>
        <mxCell id="3nuBFxr9cyL0pnOWT2aG-5" value="PC Simulator" style="shape=umlLifeline;perimeter=lifelinePerimeter;container=1;collapsible=0;recursiveResize=0;rounded=0;shadow=0;strokeWidth=1;" parent="1" vertex="1">
          <mxGeometry x="420" y="80" width="100" height="300" as="geometry" />
        </mxCell>
        <mxCell id="3nuBFxr9cyL0pnOWT2aG-6" value="" style="points=[];perimeter=orthogonalPerimeter;rounded=0;shadow=0;strokeWidth=1;" parent="3nuBFxr9cyL0pnOWT2aG-5" vertex="1">
          <mxGeometry x="45" y="70" width="10" height="190" as="geometry" />
        </mxCell>
        <mxCell id="3nuBFxr9cyL0pnOWT2aG-8" value="output cmd" style="verticalAlign=bottom;endArrow=block;entryX=0;entryY=0;shadow=0;strokeWidth=1;" parent="1" edge="1">
          <mxGeometry relative="1" as="geometry">
            <mxPoint x="459" y="169" as="sourcePoint" />
            <mxPoint x="296" y="169.0000000000001" as="targetPoint" />
          </mxGeometry>
        </mxCell>
        <mxCell id="3nuBFxr9cyL0pnOWT2aG-9" value="resp" style="verticalAlign=bottom;endArrow=none;entryX=1;entryY=0;shadow=0;strokeWidth=1;startArrow=block;startFill=1;endFill=0;" parent="1" source="3nuBFxr9cyL0pnOWT2aG-6" edge="1">
          <mxGeometry relative="1" as="geometry">
            <mxPoint x="360" y="200" as="sourcePoint" />
            <mxPoint x="300" y="200" as="targetPoint" />
          </mxGeometry>
        </mxCell>
        <mxCell id="3nuBFxr9cyL0pnOWT2aG-10" value="dispatch" style="verticalAlign=bottom;endArrow=open;dashed=1;endSize=8;exitX=1;exitY=0.95;shadow=0;strokeWidth=1;" parent="1" target="3nuBFxr9cyL0pnOWT2aG-6" edge="1">
          <mxGeometry relative="1" as="geometry">
            <mxPoint x="360" y="257" as="targetPoint" />
            <mxPoint x="300" y="276" as="sourcePoint" />
          </mxGeometry>
        </mxCell>
        <mxCell id="Ueqex-FC4IUK1esJFWyn-1" value="출력" style="verticalAlign=bottom;startArrow=block;endArrow=none;startSize=8;shadow=0;strokeWidth=1;startFill=1;endFill=0;" edge="1" parent="1">
          <mxGeometry relative="1" as="geometry">
            <mxPoint x="225" y="192" as="sourcePoint" />
            <mxPoint x="285" y="192" as="targetPoint" />
          </mxGeometry>
        </mxCell>
        <mxCell id="Ueqex-FC4IUK1esJFWyn-2" value="출력" style="verticalAlign=bottom;startArrow=block;endArrow=none;startSize=8;shadow=0;strokeWidth=1;startFill=1;endFill=0;" edge="1" parent="1">
          <mxGeometry relative="1" as="geometry">
            <mxPoint x="225" y="214" as="sourcePoint" />
            <mxPoint x="285" y="214" as="targetPoint" />
          </mxGeometry>
        </mxCell>
        <mxCell id="Ueqex-FC4IUK1esJFWyn-3" value="입력" style="verticalAlign=bottom;startArrow=none;endArrow=block;startSize=8;shadow=0;strokeWidth=1;startFill=0;endFill=1;" edge="1" parent="1">
          <mxGeometry relative="1" as="geometry">
            <mxPoint x="224" y="255" as="sourcePoint" />
            <mxPoint x="284" y="255" as="targetPoint" />
          </mxGeometry>
        </mxCell>
        <mxCell id="Ueqex-FC4IUK1esJFWyn-4" value="입력" style="verticalAlign=bottom;startArrow=none;endArrow=block;startSize=8;shadow=0;strokeWidth=1;startFill=0;endFill=1;" edge="1" parent="1">
          <mxGeometry relative="1" as="geometry">
            <mxPoint x="224" y="277" as="sourcePoint" />
            <mxPoint x="284" y="277" as="targetPoint" />
          </mxGeometry>
        </mxCell>
        <mxCell id="Ueqex-FC4IUK1esJFWyn-5" value="입력" style="verticalAlign=bottom;startArrow=none;endArrow=block;startSize=8;shadow=0;strokeWidth=1;startFill=0;endFill=1;" edge="1" parent="1">
          <mxGeometry relative="1" as="geometry">
            <mxPoint x="224" y="299" as="sourcePoint" />
            <mxPoint x="284" y="299" as="targetPoint" />
          </mxGeometry>
        </mxCell>
      </root>
    </mxGraphModel>
  </diagram>
</mxfile>
